<svg width="29" height="27" viewBox="0 0 29 27" fill="none" xmlns="http://www.w3.org/2000/svg">
<path d="M3.73482 12.3527C3.1998 12.3542 2.67614 12.5072 2.22442 12.7938C1.7727 13.0805 1.41138 13.4893 1.18226 13.9728C0.953147 14.4562 0.865597 14.9947 0.929741 15.5259C0.993886 16.057 1.2071 16.5592 1.54473 16.9742L8.7421 25.791C8.99872 26.1096 9.32766 26.3624 9.70161 26.5284C10.0756 26.6944 10.4837 26.7688 10.8922 26.7453C11.7658 26.6984 12.5545 26.2311 13.0574 25.4627L28.0081 1.38455C28.0106 1.38055 28.0131 1.37656 28.0157 1.37262C28.156 1.15723 28.1105 0.730388 27.821 0.462238C27.7414 0.388601 27.6477 0.332027 27.5454 0.296C27.4432 0.259974 27.3347 0.245258 27.2265 0.252758C27.1184 0.260259 27.013 0.289817 26.9167 0.339613C26.8204 0.389409 26.7353 0.458388 26.6667 0.542301C26.6613 0.548899 26.6558 0.555397 26.6501 0.561796L11.5721 17.5977C11.5147 17.6626 11.445 17.7153 11.3671 17.753C11.2892 17.7907 11.2045 17.8125 11.1181 17.8172C11.0316 17.8218 10.9451 17.8093 10.8635 17.7802C10.782 17.7512 10.707 17.7062 10.643 17.648L5.63888 13.0942C5.11915 12.6178 4.43987 12.3532 3.73482 12.3527Z" fill="white"/>
</svg>
